<svg width="89" height="89" viewBox="0 0 89 89" fill="none" xmlns="http://www.w3.org/2000/svg">
<path d="M44.4963 27.3564C39.9485 27.3564 35.587 29.163 32.3713 32.3788C29.1555 35.5945 27.3489 39.956 27.3489 44.5038C27.3489 49.0515 29.1555 53.413 32.3713 56.6288C35.587 59.8445 39.9485 61.6511 44.4963 61.6511C49.044 61.6511 53.4055 59.8445 56.6213 56.6288C59.837 53.413 61.6436 49.0515 61.6436 44.5038C61.6436 39.956 59.837 35.5945 56.6213 32.3788C53.4055 29.163 49.044 27.3564 44.4963 27.3564ZM44.4963 55.6399C41.5418 55.6399 38.7083 54.4662 36.6192 52.3771C34.5301 50.288 33.3564 47.4545 33.3564 44.5001C33.3564 41.5456 34.5301 38.7121 36.6192 36.623C38.7083 34.5339 41.5418 33.3602 44.4963 33.3602C47.4507 33.3602 50.2842 34.5339 52.3733 36.623C54.4624 38.7121 55.6361 41.5456 55.6361 44.5001C55.6361 47.4545 54.4624 50.288 52.3733 52.3771C50.2842 54.4662 47.4507 55.6399 44.4963 55.6399Z" fill="#FB9300"/>
<path d="M62.3222 30.7237C64.53 30.7237 66.3198 28.9339 66.3198 26.7261C66.3198 24.5183 64.53 22.7285 62.3222 22.7285C60.1144 22.7285 58.3246 24.5183 58.3246 26.7261C58.3246 28.9339 60.1144 30.7237 62.3222 30.7237Z" fill="#FB9300"/>
<path d="M76.1432 22.6616C75.2848 20.4447 73.9729 18.4315 72.2915 16.7508C70.6102 15.0701 68.5964 13.7589 66.3792 12.9013C63.7846 11.9273 61.0436 11.4007 58.2728 11.3438C54.7017 11.1881 53.5706 11.1436 44.5149 11.1436C35.4591 11.1436 34.2984 11.1436 30.7569 11.3438C27.9883 11.3978 25.2492 11.9245 22.6579 12.9013C20.4401 13.7579 18.4259 15.0687 16.7444 16.7495C15.0629 18.4304 13.7514 20.4441 12.8939 22.6616C11.9197 25.256 11.3943 27.9973 11.3401 30.7681C11.1807 34.3355 11.1324 35.4665 11.1324 44.526C11.1324 53.5817 11.1324 54.735 11.3401 58.2839C11.3957 61.0577 11.9186 63.7945 12.8939 66.394C13.7538 68.6107 15.0666 70.6237 16.7485 72.3043C18.4304 73.9849 20.4443 75.2962 22.6617 76.1543C25.248 77.1674 27.9882 77.7318 30.7644 77.8231C34.3355 77.9788 35.4665 78.0271 44.5223 78.0271C53.578 78.0271 54.7387 78.0271 58.2802 77.8231C61.0507 77.7667 63.7916 77.2414 66.3866 76.2693C68.6033 75.4097 70.6164 74.0974 72.2976 72.4162C73.9788 70.7351 75.291 68.7219 76.1507 66.5053C77.1259 63.9094 77.6488 61.1727 77.7045 58.3988C77.8639 54.8314 77.9121 53.7004 77.9121 44.6409C77.9121 35.5815 77.9121 34.4319 77.7045 30.883C77.6613 28.0731 77.1331 25.2918 76.1432 22.6616ZM71.6265 58.0095C71.6026 60.1466 71.2125 62.2638 70.4732 64.2691C69.9163 65.7112 69.0637 67.0207 67.9703 68.1135C66.8769 69.2062 65.5669 70.058 64.1245 70.6141C62.1414 71.35 60.0467 71.7401 57.9316 71.7674C54.4087 71.9306 53.4149 71.9713 44.3814 71.9713C35.3405 71.9713 34.4171 71.9713 30.8274 71.7674C28.7134 71.7415 26.6197 71.3514 24.6382 70.6141C23.1908 70.0615 21.8755 69.2112 20.7774 68.1182C19.6793 67.0253 18.8229 65.714 18.2636 64.2691C17.5347 62.2854 17.1448 60.1931 17.1103 58.0799C16.9508 54.557 16.9137 53.5632 16.9137 44.5297C16.9137 35.4925 16.9137 34.5691 17.1103 30.9757C17.1342 28.8398 17.5243 26.7238 18.2636 24.7198C19.3946 21.7939 21.7123 19.491 24.6382 18.3711C26.6206 17.6374 28.7137 17.2473 30.8274 17.2178C34.354 17.0583 35.3442 17.0138 44.3814 17.0138C53.4186 17.0138 54.3457 17.0138 57.9316 17.2178C60.0469 17.2433 62.1419 17.6334 64.1245 18.3711C65.5668 18.9284 66.8766 19.781 67.97 20.8743C69.0633 21.9677 69.9159 23.2775 70.4732 24.7198C71.2021 26.7035 71.592 28.7958 71.6265 30.909C71.786 34.4356 71.8267 35.4257 71.8267 44.4629C71.8267 53.4964 71.8267 54.468 71.6673 58.0132H71.6265V58.0095Z" fill="#FB9300"/>
</svg>
