<svg width="66" height="76" viewBox="0 0 66 76" fill="none" xmlns="http://www.w3.org/2000/svg">
<path d="M62.1815 19.358C58.5215 18.5467 55.2105 16.5875 52.7236 13.7616C50.2368 10.9357 48.702 7.38828 48.3394 3.62847V2H35.6723V52.5936C35.6749 54.8386 34.9767 57.0274 33.6765 58.8501C32.3764 60.6728 30.5404 62.0369 28.4284 62.7493C26.3164 63.4617 24.0356 63.4861 21.9091 62.8192C19.7826 62.1523 17.9181 60.8279 16.5798 59.0335C15.3808 57.4451 14.6466 55.5503 14.4603 53.5633C14.2739 51.5763 14.6428 49.5763 15.5252 47.7896C16.4076 46.0029 17.7684 44.5007 19.4536 43.4529C21.1388 42.4052 23.0813 41.8536 25.0613 41.8605C26.1563 41.8542 27.2459 42.0165 28.2923 42.3417V29.3879C27.0746 29.2359 25.8474 29.1741 24.6207 29.2029C20.102 29.3246 15.7167 30.7719 12.0016 33.3676C8.28649 35.9632 5.40293 39.5946 3.70402 43.8171C2.0051 48.0395 1.56456 52.6697 2.43635 57.1406C3.30814 61.6116 5.45441 65.7292 8.61234 68.9894C11.8488 72.3063 15.9905 74.5785 20.511 75.5173C25.0315 76.4561 29.7269 76.0191 34.0004 74.2619C38.274 72.5046 41.9329 69.5064 44.5122 65.6483C47.0915 61.7901 48.4748 57.2461 48.4863 52.5936V26.6861C53.5952 30.3648 59.7215 32.3327 66 32.3118V19.7281C64.7667 19.7333 63.5362 19.6092 62.3284 19.358H62.1815Z" fill="#4DE8F4"/>
<path d="M60.1815 17.358C56.5215 16.5467 53.2105 14.5875 50.7236 11.7616C48.2368 8.93568 46.702 5.38828 46.3394 1.62847V0H33.6723V50.5936C33.6749 52.8386 32.9767 55.0274 31.6765 56.8501C30.3764 58.6728 28.5404 60.0369 26.4284 60.7493C24.3164 61.4617 22.0356 61.4861 19.9091 60.8192C17.7826 60.1523 15.9181 58.8279 14.5798 57.0335C13.3808 55.4451 12.6466 53.5503 12.4603 51.5633C12.2739 49.5763 12.6428 47.5763 13.5252 45.7896C14.4076 44.0029 15.7684 42.5007 17.4536 41.4529C19.1388 40.4052 21.0813 39.8536 23.0613 39.8605C24.1563 39.8542 25.2459 40.0165 26.2923 40.3417V27.3879C25.0746 27.2359 23.8474 27.1741 22.6207 27.2029C18.102 27.3246 13.7167 28.7719 10.0016 31.3676C6.28649 33.9632 3.40293 37.5946 1.70402 41.8171C0.0050989 46.0395 -0.435439 50.6697 0.436349 55.1406C1.30814 59.6116 3.45441 63.7292 6.61234 66.9894C9.84884 70.3063 13.9905 72.5785 18.511 73.5173C23.0315 74.4561 27.7269 74.0191 32.0004 72.2619C36.274 70.5046 39.9329 67.5064 42.5122 63.6483C45.0915 59.7901 46.4748 55.2461 46.4863 50.5936V24.6861C51.5952 28.3648 57.7215 30.3327 64 30.3118V17.7281C62.7667 17.7333 61.5362 17.6092 60.3284 17.358H60.1815Z" fill="#FAFAFA"/>
</svg>
